<svg width="26" height="26" viewBox="0 0 26 26" fill="none" xmlns="http://www.w3.org/2000/svg">
<path d="M23.5882 13H10.1765ZM20.7647 17.5L25 13L20.7647 8.5M13.7059 5.5V4C13.7059 3.20435 13.4084 2.44129 12.8789 1.87868C12.3494 1.31607 11.6312 1 10.8824 1H3.82353C3.07468 1 2.35651 1.31607 1.82699 1.87868C1.29748 2.44129 1 3.20435 1 4V22C1 22.7956 1.29748 23.5587 1.82699 24.1213C2.35651 24.6839 3.07468 25 3.82353 25H10.8824C11.6312 25 12.3494 24.6839 12.8789 24.1213C13.4084 23.5587 13.7059 22.7956 13.7059 22V20.5" fill="white"/>
<path d="M23.5882 13H10.1765M20.7647 17.5L25 13L20.7647 8.5M13.7059 5.5V4C13.7059 3.20435 13.4084 2.44129 12.8789 1.87868C12.3494 1.31607 11.6312 1 10.8824 1H3.82353C3.07468 1 2.35651 1.31607 1.82699 1.87868C1.29748 2.44129 1 3.20435 1 4V22C1 22.7956 1.29748 23.5587 1.82699 24.1213C2.35651 24.6839 3.07468 25 3.82353 25H10.8824C11.6312 25 12.3494 24.6839 12.8789 24.1213C13.4084 23.5587 13.7059 22.7956 13.7059 22V20.5" stroke="white" stroke-width="1.7" stroke-linecap="round" stroke-linejoin="round"/>
</svg>
